<?xml version="1.0" encoding="UTF-8" standalone="no"?>
<svg xmlns:rdf="http://www.w3.org/1999/02/22-rdf-syntax-ns#" xmlns="http://www.w3.org/2000/svg" xml:space="preserve" viewBox="0 0 128 128" version="1.1" y="0px" x="0px" xmlns:cc="http://creativecommons.org/ns#" xmlns:dc="http://purl.org/dc/elements/1.1/"><metadata><rdf:RDF><cc:Work rdf:about=""><dc:format>image/svg+xml</dc:format><dc:type rdf:resource="http://purl.org/dc/dcmitype/StillImage"/><dc:title/></cc:Work></rdf:RDF></metadata><rect height="128" width="128" y="0" x="0" fill="#4c7e3a"/><g fill="#fff" transform="matrix(1.3151 0 0 1.3151 -20.166 -20.166)"><path d="m91.344 43.844-12.188-12.188c-1.445-1.445-4.336-2.656-6.406-2.656h-35c-2.07 0-3.75 1.68-3.75 3.75v62.5c0 2.0703 1.6797 3.75 3.75 3.75h52.5c2.07 0 3.75-1.68 3.75-3.75v-45c0-2.0703-1.2109-4.9609-2.6562-6.4062zm-17.344-9.532c0.66406 0.23438 1.3281 0.58594 1.6016 0.85938l12.226 12.227c0.274 0.274 0.625 0.938 0.86 1.602h-14.688zm15 59.688h-50v-60h30v16.25c0 2.07 1.68 3.75 3.75 3.75h16.25z"/></g><g fill="#fff" transform="matrix(.14396 0 0 .14396 96.296 -.76103)"><path stroke-width="4.3877" fill="#fff" d="m163.54 118.43h-70.204v-71.079c0-12.285-9.6529-21.061-21.938-21.061h-0.87753c-12.286 0-21.061 8.3366-21.061 21.061v71.08h-72.397c-12.285 0-24.132 9.6529-24.132 21.938v0.87753c0 12.285 11.847 20.622 24.132 20.622h68.009v71.08c0 12.285 11.408 21.061 24.132 21.061h0.87753c12.286 0 23.255-8.3366 23.255-21.061v-71.08h70.203c12.285 0 21.938-9.6529 21.938-21.938v-0.87753c0-12.285-9.6529-20.622-21.938-20.622z"/></g><g fill="#fff" transform="matrix(.28148 0 0 .28148 33.037 46.079)"><path d="m146.31 83.165 20.34-54.54c0.68-1.82 1.34-3.65 2-5.57h-1.06-21.94a1.13 1.13 0 0 0 -1.28 0.92q-5.02 14.17-10.13 28.38l-23.48 65.22-2.81 7.78c-0.36-0.15-0.3-0.43-0.36-0.62q-8.8-27.45-17.56-54.92c-0.22-0.7-0.46-1-1.28-1h-20.19a1.38 1.38 0 0 0 -0.88 0.11c0.07 0.2 0.13 0.42 0.21 0.62 1.2 3.07 2.42 6.13 3.61 9.2q11.47 29.5 22.94 59a35.77 35.77 0 0 1 2.69 10.48 29.68 29.68 0 0 1 -2.9 14.62 26 26 0 0 1 -7.8 10.06 27.05 27.05 0 0 1 -11.87 5c-0.61 0.11-0.7 0.35-0.7 0.88q0 8.74 0 17.47c0 0.62 0.16 0.75 0.75 0.69 2-0.22 4.1-0.33 6.13-0.74a39.19 39.19 0 0 0 16.51 -7 53.93 53.93 0 0 0 13.76 -16.19 140.13 140.13 0 0 0 9.66 -21.15q12.8-34.31 25.64-68.7z" class="cls-2"/><path d="m66.472 178.66c0-0.43-0.15-0.53-0.56-0.54-1.71 0-3.42-0.06-5.13-0.14a22.36 22.36 0 0 1 -3.28 -0.26 26.18 26.18 0 0 1 -21.33 -25.56q0-37.42 0-74.84a27.65 27.65 0 0 1 0.51 -5.38 24.93 24.93 0 0 1 6.6 -12.53c4.9-5.16 10.87-8.13 18-8.16 21.39-0.07 42.78 0 64.16 0a4.93 4.93 0 0 1 0.68 0 0.54 0.54 0 0 0 0.64 -0.43l2.34-6.56h-0.63q-33.1 0-66.2 0a33.24 33.24 0 0 0 -9.25 1.25 32.19 32.19 0 0 0 -13.27 7.64 31.68 31.68 0 0 0 -10.51 23.89q-0.07 37.57 0 75.13a34.47 34.47 0 0 0 0.66 6.63 31.26 31.26 0 0 0 7.84 15.33 33.6 33.6 0 0 0 12.82 8.9c5 1.91 10.17 2.13 15.42 2 0.42 0 0.56-0.12 0.55-0.55q-0.06-2.9-0.06-5.82z" class="cls-2"/><path d="m190.75 77.355a31 31 0 0 0 -1.4 -9.71c-3.3-10-9.58-17.35-19.57-21.25-0.84-0.33-1.09-0.1-1.35 0.64-0.53 1.55-1.08 3.09-1.72 4.6-0.32 0.76-0.11 1 0.6 1.3a26.16 26.16 0 0 1 16.46 24.42q0 49.79 0 99.59c0 0.82-0.14 1.06-1 1.06q-25.38 0-50.76 0h-13.3c-0.34 0-0.7-0.11-0.92 0.33a75.7 75.7 0 0 1 -4.1 6.66h0.39q37.9 0 75.81 0c0.85 0 0.9-0.32 0.9-1q-0.03-53.27-0.04-106.64z" class="cls-2"/></g></svg>
